PathFileType	4	(X/Y/Z)	 control3min.trc
DataRate	CameraRate	NumFrames	NumMarkers	Units	OrigDataRate	OrigDataStartFrame	OrigNumFrames
200	200	10	35	m	200	500	999
Frame#	Time	C7			LSH			RSH			MAN			RASI			LASI			HIPR			HIPL			RPSI			LPSI			COX			RTHI1			RTHI2			RTHI3			RTHI4			RSHA1			RSHA2			RSHA3			RSHA4			RHEEL			RMET5			RMET1			RTOE			LTHI1			LTHI2			LTHI3			LTHI4			LSHA1			LSHA2			LSHA3			LSHA4			LHEEL			LMET5			LMET1			LTOE			
		X1	Y1	Z1	X2	Y2	Z2	X3	Y3	Z3	X4	Y4	Z4	X5	Y5	Z5	X6	Y6	Z6	X7	Y7	Z7	X8	Y8	Z8	X9	Y9	Z9	X10	Y10	Z10	X11	Y11	Z11	X12	Y12	Z12	X13	Y13	Z13	X14	Y14	Z14	X15	Y15	Z15	X16	Y16	Z16	X17	Y17	Z17	X18	Y18	Z18	X19	Y19	Z19	X20	Y20	Z20	X21	Y21	Z21	X22	Y22	Z22	X23	Y23	Z23	X24	Y24	Z24	X25	Y25	Z25	X26	Y26	Z26	X27	Y27	Z27	X28	Y28	Z28	X29	Y29	Z29	X30	Y30	Z30	X31	Y31	Z31	X32	Y32	Z32	X33	Y33	Z33	X34	Y34	Z34	X35	Y35	Z35	
500	2.5000	-0.307168	1.699453	-0.542535	-0.246198	1.693298	-0.768744	-0.235969	1.687935	-0.336456	-0.155240	1.654894	-0.553165	-0.136092	1.178873	-0.430240	-0.137103	1.180844	-0.661170	-0.202802	1.262371	-0.384742	-0.193143	1.255000	-0.705069	-0.314042	1.231707	-0.490219	-0.311924	1.233092	-0.599087	-0.319842	1.236799	-0.541915	-0.242286	0.950939	-0.352833	-0.231496	0.893818	-0.341065	-0.167636	0.904627	-0.334511	-0.171071	0.964998	-0.346648	-0.313276	0.483378	-0.343345	-0.323990	0.441781	-0.348645	-0.264916	0.432298	-0.337978	-0.257799	0.471514	-0.337265	-0.367392	0.144645	-0.425731	-0.215239	0.057702	-0.341660	-0.165495	0.076572	-0.408943	-0.138757	0.071890	-0.398182	-0.204766	0.931449	-0.751719	-0.190127	0.872097	-0.758876	-0.126370	0.881635	-0.756925	-0.132010	0.941564	-0.750074	-0.297131	0.441002	-0.746995	-0.307885	0.402231	-0.741525	-0.247554	0.390463	-0.753604	-0.244604	0.434089	-0.757620	-0.374272	0.151498	-0.678910	-0.227350	0.056726	-0.760714	-0.173274	0.066126	-0.693361	-0.144867	0.059254	-0.705791	
501	2.5050	-0.306997	1.698047	-0.542478	-0.246184	1.691557	-0.768846	-0.235855	1.686157	-0.336236	-0.155185	1.653426	-0.553075	-0.136646	1.177442	-0.430262	-0.137527	1.179404	-0.661147	-0.203311	1.260852	-0.384777	-0.193589	1.253503	-0.705091	-0.314544	1.230251	-0.490365	-0.312332	1.231675	-0.599202	-0.320302	1.235366	-0.542047	-0.242278	0.949447	-0.352832	-0.231299	0.892321	-0.341043	-0.167443	0.903328	-0.334703	-0.171068	0.963661	-0.346827	-0.312927	0.482276	-0.343139	-0.323858	0.440702	-0.348615	-0.264732	0.430972	-0.337988	-0.257480	0.470192	-0.337228	-0.368434	0.143759	-0.426261	-0.216346	0.056542	-0.342306	-0.166314	0.075660	-0.409304	-0.139516	0.070752	-0.398623	-0.204241	0.930001	-0.751860	-0.189352	0.870713	-0.759029	-0.125640	0.880479	-0.756733	-0.131531	0.940382	-0.749835	-0.296875	0.440028	-0.747021	-0.307789	0.401314	-0.741524	-0.247515	0.389280	-0.753622	-0.244380	0.432890	-0.757688	-0.375334	0.150474	-0.678553	-0.228337	0.056659	-0.761227	-0.173927	0.065832	-0.694141	-0.145510	0.058954	-0.706701	
502	2.5100	-0.306803	1.696419	-0.542419	-0.246145	1.689556	-0.768955	-0.235707	1.684119	-0.336007	-0.155109	1.651729	-0.552971	-0.137230	1.175776	-0.430301	-0.137978	1.177739	-0.661130	-0.203861	1.259074	-0.384810	-0.194102	1.251777	-0.705119	-0.315075	1.228549	-0.490504	-0.312781	1.230020	-0.599311	-0.320796	1.233687	-0.542178	-0.242221	0.947688	-0.352783	-0.231042	0.890585	-0.340947	-0.167202	0.901786	-0.334884	-0.171029	0.962093	-0.347003	-0.312540	0.480920	-0.343092	-0.323696	0.439410	-0.348636	-0.264549	0.429434	-0.337980	-0.257141	0.468643	-0.337159	-0.369550	0.142719	-0.426769	-0.217598	0.055111	-0.342976	-0.167277	0.074458	-0.409682	-0.140426	0.069305	-0.399077	-0.203658	0.928322	-0.752031	-0.188497	0.869103	-0.759197	-0.124837	0.879114	-0.756511	-0.131001	0.938985	-0.749556	-0.296610	0.438872	-0.747051	-0.307699	0.400222	-0.741527	-0.247493	0.387891	-0.753662	-0.244157	0.431477	-0.757773	-0.376501	0.149354	-0.678274	-0.229444	0.056297	-0.761595	-0.174771	0.065234	-0.694727	-0.146333	0.058321	-0.707378	
503	2.5150	-0.306584	1.694569	-0.542353	-0.246078	1.687298	-0.769068	-0.235526	1.681825	-0.335769	-0.155016	1.649799	-0.552856	-0.137845	1.173867	-0.430355	-0.138455	1.175849	-0.661121	-0.204450	1.257036	-0.384844	-0.194668	1.249822	-0.705153	-0.315634	1.226604	-0.490639	-0.313270	1.228131	-0.599419	-0.321319	1.231768	-0.542305	-0.242112	0.945652	-0.352680	-0.230734	0.888605	-0.340818	-0.166909	0.900021	-0.335056	-0.170959	0.960290	-0.347178	-0.312141	0.479310	-0.343209	-0.323485	0.437916	-0.348619	-0.264371	0.427693	-0.337958	-0.256776	0.466872	-0.337063	-0.370741	0.141508	-0.427250	-0.218968	0.053434	-0.343679	-0.168371	0.073005	-0.410092	-0.141468	0.067585	-0.399565	-0.203029	0.926406	-0.752218	-0.187582	0.867258	-0.759376	-0.123974	0.877531	-0.756258	-0.130433	0.937366	-0.749239	-0.296331	0.437533	-0.747092	-0.307618	0.398963	-0.741538	-0.247491	0.386295	-0.753725	-0.243929	0.429855	-0.757875	-0.377775	0.148144	-0.678065	-0.230665	0.055637	-0.761815	-0.175807	0.064330	-0.695093	-0.147347	0.057359	-0.707802	
504	2.5200	-0.306340	1.692497	-0.542279	-0.245979	1.684786	-0.769183	-0.235312	1.679278	-0.335526	-0.154904	1.647630	-0.552726	-0.138486	1.171722	-0.430426	-0.138956	1.173734	-0.661118	-0.205076	1.254744	-0.384881	-0.195276	1.247639	-0.705194	-0.316220	1.224408	-0.490773	-0.313796	1.226001	-0.599528	-0.321879	1.229604	-0.542428	-0.241961	0.943367	-0.352557	-0.230375	0.886376	-0.340659	-0.166563	0.898017	-0.335210	-0.170857	0.958245	-0.347351	-0.311728	0.477480	-0.343446	-0.323238	0.436236	-0.348558	-0.264194	0.425742	-0.337922	-0.256390	0.464879	-0.336947	-0.372017	0.140098	-0.427693	-0.220444	0.051532	-0.344418	-0.169586	0.071327	-0.410547	-0.142627	0.065619	-0.400101	-0.202373	0.924255	-0.752404	-0.186620	0.865183	-0.759558	-0.123075	0.875732	-0.755986	-0.129844	0.935516	-0.748893	-0.296034	0.436018	-0.747147	-0.307535	0.397537	-0.741570	-0.247501	0.384502	-0.753811	-0.243686	0.428028	-0.757998	-0.379141	0.146851	-0.677944	-0.232002	0.054660	-0.761866	-0.177032	0.063126	-0.695231	-0.148552	0.056072	-0.707967	
505	2.5250	-0.306073	1.690202	-0.542195	-0.245829	1.682041	-0.769294	-0.235063	1.676482	-0.335279	-0.154786	1.645173	-0.552597	-0.139153	1.169340	-0.430511	-0.139481	1.171391	-0.661124	-0.205739	1.252201	-0.384924	-0.195908	1.245227	-0.705244	-0.316834	1.221972	-0.490910	-0.314360	1.223618	-0.599640	-0.322470	1.227189	-0.542554	-0.241773	0.940818	-0.352414	-0.229972	0.883897	-0.340487	-0.166172	0.895797	-0.335353	-0.170728	0.955957	-0.347524	-0.311292	0.475453	-0.343704	-0.322962	0.434376	-0.348510	-0.264019	0.423579	-0.337881	-0.255990	0.462665	-0.336815	-0.373375	0.138491	-0.428094	-0.222016	0.049394	-0.345196	-0.170906	0.069424	-0.411047	-0.143894	0.063417	-0.400695	-0.201696	0.921869	-0.752594	-0.185630	0.862873	-0.759736	-0.122150	0.873709	-0.755697	-0.129248	0.933428	-0.748523	-0.295697	0.434343	-0.747259	-0.307442	0.395947	-0.741635	-0.247505	0.382518	-0.753921	-0.243419	0.425997	-0.758139	-0.380592	0.145481	-0.677897	-0.233456	0.053355	-0.761737	-0.178449	0.061624	-0.695139	-0.149951	0.054475	-0.707870	
506	2.5300	-0.305782	1.687684	-0.542101	-0.245629	1.679057	-0.769400	-0.234782	1.673440	-0.335030	-0.154673	1.642439	-0.552471	-0.139848	1.166724	-0.430610	-0.140026	1.168821	-0.661138	-0.206436	1.249417	-0.384977	-0.196535	1.242591	-0.705312	-0.317474	1.219282	-0.491045	-0.314957	1.220980	-0.599758	-0.323091	1.224517	-0.542688	-0.241559	0.938014	-0.352276	-0.229530	0.881167	-0.340309	-0.165736	0.893343	-0.335475	-0.170574	0.953442	-0.347699	-0.310781	0.473206	-0.343881	-0.322658	0.432340	-0.348468	-0.263849	0.421198	-0.337836	-0.255582	0.460235	-0.336674	-0.374824	0.136680	-0.428468	-0.223681	0.047023	-0.346018	-0.172324	0.067293	-0.411604	-0.145269	0.060975	-0.401345	-0.201009	0.919249	-0.752781	-0.184627	0.860330	-0.759906	-0.121217	0.871459	-0.755400	-0.128651	0.931113	-0.748137	-0.295323	0.432491	-0.747423	-0.307333	0.394181	-0.741746	-0.247491	0.380333	-0.754051	-0.243118	0.423769	-0.758305	-0.382121	0.144022	-0.677903	-0.235026	0.051717	-0.761425	-0.180053	0.059839	-0.694823	-0.151542	0.052575	-0.707518	
507	2.5350	-0.305467	1.684942	-0.541994	-0.245383	1.675837	-0.769502	-0.234472	1.670152	-0.334781	-0.154561	1.639416	-0.552350	-0.140567	1.163871	-0.430718	-0.140589	1.166021	-0.661160	-0.207163	1.246390	-0.385042	-0.197149	1.239728	-0.705398	-0.318140	1.216337	-0.491185	-0.315583	1.218087	-0.599887	-0.323740	1.221597	-0.542828	-0.241323	0.934960	-0.352139	-0.229049	0.878195	-0.340075	-0.165263	0.890667	-0.335582	-0.170399	0.950692	-0.347876	-0.310270	0.470852	-0.343844	-0.322368	0.430123	-0.348455	-0.263677	0.418601	-0.337793	-0.255170	0.457588	-0.336529	-0.376355	0.134741	-0.428910	-0.225432	0.044441	-0.346881	-0.173844	0.064925	-0.412220	-0.146754	0.058279	-0.402036	-0.200330	0.916391	-0.752953	-0.183624	0.857554	-0.760068	-0.120298	0.868977	-0.755097	-0.128066	0.928561	-0.747742	-0.294908	0.430450	-0.747655	-0.307200	0.392235	-0.741921	-0.247448	0.377948	-0.754195	-0.242772	0.421345	-0.758492	-0.383718	0.142474	-0.677979	-0.236705	0.049753	-0.760935	-0.181835	0.057771	-0.694276	-0.153322	0.050385	-0.706914	
508	2.5400	-0.305129	1.681972	-0.541879	-0.245090	1.672379	-0.769598	-0.234135	1.666621	-0.334536	-0.154449	1.636105	-0.552233	-0.141308	1.160786	-0.430835	-0.141169	1.162989	-0.661191	-0.207926	1.243124	-0.385118	-0.197747	1.236635	-0.705499	-0.318832	1.213131	-0.491334	-0.316238	1.214923	-0.600026	-0.324422	1.218417	-0.542975	-0.241075	0.931667	-0.352025	-0.228541	0.874962	-0.339887	-0.164775	0.887748	-0.335661	-0.170215	0.947706	-0.348041	-0.309737	0.468353	-0.343643	-0.322099	0.427735	-0.348476	-0.263494	0.415783	-0.337748	-0.254758	0.454726	-0.336385	-0.377970	0.132661	-0.429423	-0.227215	0.041739	-0.347703	-0.175453	0.062339	-0.412910	-0.148344	0.055333	-0.402759	-0.199666	0.913294	-0.753107	-0.182634	0.854548	-0.760222	-0.119400	0.866260	-0.754794	-0.127499	0.925770	-0.747342	-0.294447	0.428226	-0.747963	-0.307026	0.390111	-0.742203	-0.247355	0.375362	-0.754350	-0.242370	0.418726	-0.758703	-0.385373	0.140835	-0.678123	-0.238475	0.047467	-0.760263	-0.183784	0.055432	-0.693510	-0.155273	0.047921	-0.706066	
509	2.5450	-0.304770	1.678770	-0.541755	-0.244749	1.668681	-0.769687	-0.233776	1.662847	-0.334295	-0.154336	1.632512	-0.552121	-0.142072	1.157469	-0.430955	-0.141765	1.159720	-0.661232	-0.208721	1.239626	-0.385203	-0.198326	1.233307	-0.705612	-0.319551	1.209663	-0.491492	-0.316915	1.211496	-0.600177	-0.325130	1.214969	-0.543133	-0.240823	0.928137	-0.351933	-0.228009	0.871491	-0.339700	-0.164275	0.884598	-0.335710	-0.170025	0.944491	-0.348191	-0.309181	0.465706	-0.343313	-0.321830	0.425165	-0.348517	-0.263303	0.412762	-0.337704	-0.254332	0.451647	-0.336245	-0.379685	0.130436	-0.430004	-0.228932	0.039041	-0.348393	-0.177112	0.059587	-0.413677	-0.149975	0.052209	-0.403509	-0.199023	0.909959	-0.753248	-0.181672	0.851311	-0.760361	-0.118530	0.863306	-0.754490	-0.126957	0.922742	-0.746942	-0.293932	0.425807	-0.748361	-0.306812	0.387786	-0.742577	-0.247209	0.372570	-0.754510	-0.241911	0.415899	-0.758930	-0.387096	0.139097	-0.678331	-0.240307	0.044910	-0.759451	-0.185865	0.052862	-0.692500	-0.157355	0.045238	-0.704986	
